<svg width="337" height="52" viewBox="0 0 337 52" fill="none" xmlns="http://www.w3.org/2000/svg">
<path d="M0.695312 29.4844C0.695312 27.6562 1.74219 26.7422 3.83594 26.7422C4.89844 26.7422 5.94531 27.0156 6.97656 27.5625C6.97656 29.5469 7.39062 31.0703 8.21875 32.1328C9.04688 33.1797 10.4609 33.7031 12.4609 33.7031C14.4766 33.7031 15.9531 33.3203 16.8906 32.5547C17.8281 31.7891 18.2969 30.5703 18.2969 28.8984C18.2969 27.1172 17.6094 25.5938 16.2344 24.3281C15.1094 23.2812 13.8047 22.375 12.3203 21.6094C10.8359 20.8438 9.64062 20.2188 8.73438 19.7344C7.82812 19.2344 6.96094 18.6875 6.13281 18.0938C5.32031 17.5 4.59375 16.8594 3.95312 16.1719C2.57812 14.6875 1.89062 12.9141 1.89062 10.8516C1.89062 8.77344 2.42969 7.02344 3.50781 5.60156C5.61719 2.82031 9.04688 1.42969 13.7969 1.42969C17.4531 1.42969 20.2422 2.1875 22.1641 3.70312C23.9141 5.09375 24.7891 6.64062 24.7891 8.34375C24.7891 9.14062 24.5156 9.79688 23.9688 10.3125C23.4375 10.8281 22.6094 11.0859 21.4844 11.0859C20.3594 11.0859 19.2031 10.7969 18.0156 10.2188C18.0156 10.1094 18.0156 10.0078 18.0156 9.91406C18.0156 8.17969 17.625 6.78906 16.8438 5.74219C16.0781 4.69531 14.9141 4.17188 13.3516 4.17188C11.7891 4.17188 10.5469 4.60938 9.625 5.48438C8.71875 6.35938 8.26562 7.64844 8.26562 9.35156C8.26562 10.8203 8.98438 12.1094 10.4219 13.2188C11.4219 14 12.7344 14.7969 14.3594 15.6094C15.9844 16.4219 17.2656 17.0859 18.2031 17.6016C19.1562 18.1016 20.0625 18.6719 20.9219 19.3125C21.7812 19.9375 22.5391 20.625 23.1953 21.375C24.6328 23 25.3516 24.875 25.3516 27C25.3516 29.1094 24.7812 30.8984 23.6406 32.3672C22.5 33.8203 20.9766 34.9297 19.0703 35.6953C17.1641 36.4453 15.2422 36.8203 13.3047 36.8203C11.3828 36.8203 9.75781 36.6641 8.42969 36.3516C7.10156 36.0547 5.97656 35.6562 5.05469 35.1562C4.13281 34.6406 3.33594 34.0625 2.66406 33.4219C1.35156 32.1719 0.695312 30.8594 0.695312 29.4844ZM32.0078 51.2109C32.3203 48.1016 32.4766 42.7188 32.4766 35.0625C32.4766 27.3906 32.2578 21.4453 31.8203 17.2266C31.7266 15.6172 30.8438 14.7422 29.1719 14.6016C29.1562 14.5078 29.1328 14.3984 29.1016 14.2734C29.0859 14.1328 29.0703 14.0234 29.0547 13.9453C29.0234 13.7266 29.0078 13.5391 29.0078 13.3828C29.0078 13.2266 29.0156 13.0859 29.0312 12.9609C31.1094 12.1641 32.8047 11.6797 34.1172 11.5078C35.4297 11.3203 36.3828 11.2266 36.9766 11.2266C37.5859 11.2266 37.9609 11.2266 38.1016 11.2266C38.4609 11.7734 38.7031 12.7812 38.8281 14.25C39.9062 13.2656 41.1641 12.4844 42.6016 11.9062C44.0547 11.3281 45.4062 11.0391 46.6562 11.0391C47.9219 11.0391 49.0156 11.1406 49.9375 11.3438C50.8594 11.5312 51.7656 11.8906 52.6562 12.4219C53.5625 12.9375 54.3438 13.6094 55 14.4375C56.6094 16.4688 57.4141 19.3672 57.4141 23.1328C57.4141 24.9297 57.1328 26.6016 56.5703 28.1484C56.0078 29.6953 55.2656 31 54.3438 32.0625C53.4375 33.125 52.3984 34.0312 51.2266 34.7812C48.9609 36.2344 46.7031 36.9609 44.4531 36.9609C42.2031 36.9609 40.3906 36.7344 39.0156 36.2812C39.0156 39.2344 38.9844 44.2578 38.9219 51.3516C37.5 51.6016 36.2188 51.7266 35.0781 51.7266C33.9531 51.7266 32.9297 51.5547 32.0078 51.2109ZM38.9219 16.7578C38.9844 20.6641 39.0156 26.1641 39.0156 33.2578C39.9844 33.6172 41.0859 33.7969 42.3203 33.7969C43.5703 33.7969 44.6172 33.6016 45.4609 33.2109C46.3047 32.8047 47.0938 32.2109 47.8281 31.4297C49.4375 29.6953 50.2422 27.0781 50.2422 23.5781C50.2422 19.9688 49.5 17.5312 48.0156 16.2656C46.9062 15.3125 45.5312 14.8359 43.8906 14.8359C42.2656 14.8359 40.6094 15.4766 38.9219 16.7578ZM69.2969 25.875C69.7656 28.1875 70.7656 30.0547 72.2969 31.4766C73.8281 32.8984 75.6172 33.6094 77.6641 33.6094C79.7109 33.6094 81.7734 32.7266 83.8516 30.9609C84.6328 31.4766 85.1094 32.0859 85.2812 32.7891C83.8438 34.4609 81.7188 35.6562 78.9062 36.375C77.7656 36.6719 76.4453 36.8203 74.9453 36.8203C73.4609 36.8203 71.9219 36.5469 70.3281 36C68.7344 35.4688 67.3047 34.6875 66.0391 33.6562C64.7891 32.625 63.7969 31.2734 63.0625 29.6016C62.3281 27.9141 61.9609 26.0469 61.9609 24C61.9609 21.9531 62.3359 20.1016 63.0859 18.4453C63.8359 16.7734 64.8281 15.4062 66.0625 14.3438C68.6406 12.1094 71.5938 10.9922 74.9219 10.9922C77.8438 10.9922 80.375 11.7812 82.5156 13.3594C83.5469 14.1406 84.3672 15.1562 84.9766 16.4062C85.6016 17.6406 85.9141 19.0391 85.9141 20.6016C85.9141 23.2734 85.0312 24.6797 83.2656 24.8203L69.2969 25.875ZM79.6094 19.8984C79.6094 18.0391 79.0938 16.5859 78.0625 15.5391C77.0312 14.4922 75.6797 13.9688 74.0078 13.9688C72.3359 13.9688 71.0703 14.7578 70.2109 16.3359C69.3516 17.8984 68.9219 20.0703 68.9219 22.8516C72.8125 22.4297 76.3281 21.9844 79.4688 21.5156C79.5625 20.9531 79.6094 20.4141 79.6094 19.8984ZM112.68 22.7578L112.539 30.6328C112.539 30.7109 112.539 30.7891 112.539 30.8672C112.539 31.7266 112.945 32.1562 113.758 32.1562C114.383 32.1562 115.047 31.9531 115.75 31.5469C115.969 31.7344 116.172 32 116.359 32.3438C116.562 32.6719 116.68 32.9297 116.711 33.1172C114.773 35.5859 112.758 36.8203 110.664 36.8203C108.586 36.8203 107.133 35.7969 106.305 33.75C104.867 34.75 103.398 35.5078 101.898 36.0234C100.414 36.5547 99.1328 36.8203 98.0547 36.8203C96.9922 36.8203 96 36.7031 95.0781 36.4688C94.1719 36.2344 93.3281 35.8594 92.5469 35.3438C90.8594 34.25 90.0156 32.4453 90.0156 29.9297C90.0156 28.5859 90.3828 27.4141 91.1172 26.4141C91.8672 25.3984 92.8828 24.6016 94.1641 24.0234C96.6172 22.9141 99.5469 22.3125 102.953 22.2188L105.672 22.125C105.781 20.8594 105.836 19.8594 105.836 19.125C105.836 17.4688 105.516 16.2188 104.875 15.375C104.25 14.5312 103.078 14.1094 101.359 14.1094C100.328 14.1094 99.5234 14.4688 98.9453 15.1875C98.3828 15.9062 98.1016 16.9688 98.1016 18.375C98.1016 18.5625 97.8359 18.7891 97.3047 19.0547C96.4141 19.4766 95.5234 19.6875 94.6328 19.6875C93.7578 19.6875 93.0547 19.4375 92.5234 18.9375C92.0078 18.4375 91.75 17.7344 91.75 16.8281C91.75 15.9219 92.0781 15.0703 92.7344 14.2734C93.3906 13.4766 94.2656 12.8594 95.3594 12.4219C97.5312 11.5625 100.008 11.1328 102.789 11.1328C105.695 11.1328 107.82 11.5938 109.164 12.5156C110.383 13.3281 111.25 14.4922 111.766 16.0078C112.375 17.7734 112.68 20.0234 112.68 22.7578ZM105.672 31.2891C105.469 30.1484 105.367 29.1641 105.367 28.3359C105.367 27.4922 105.391 26.3203 105.438 24.8203L102.18 24.9609C100.508 24.9609 99.2188 25.3672 98.3125 26.1797C97.4062 26.9922 96.9531 28.0078 96.9531 29.2266C96.9531 30.4453 97.2188 31.3203 97.75 31.8516C98.2812 32.3828 99.3516 32.6484 100.961 32.6484C102.586 32.6484 104.156 32.1953 105.672 31.2891ZM145.703 32.2969C146.328 32.2969 146.938 32.0938 147.531 31.6875L148.492 33.2578C147.445 34.8359 146.094 35.9375 144.438 36.5625C143.75 36.8281 143.039 36.9609 142.305 36.9609C141.57 36.9609 140.852 36.7656 140.148 36.375C139.461 36 138.852 35.5156 138.32 34.9219C137.789 34.3281 137.266 33.5859 136.75 32.6953C136.25 31.8047 135.828 30.9531 135.484 30.1406C135.141 29.3125 134.797 28.375 134.453 27.3281C134.031 26.0938 133.555 24.4219 133.023 22.3125C131.945 23.9844 130.938 25.3438 130 26.3906C130 28.2031 129.969 31.4062 129.906 36C128.375 36.2969 127.008 36.4453 125.805 36.4453C124.617 36.4453 123.617 36.2812 122.805 35.9531C123.195 33.5938 123.391 29.1875 123.391 22.7344C123.391 16.2812 123.273 10.7344 123.039 6.09375C122.914 4.59375 121.922 3.73437 120.062 3.51562C120.047 3.42188 120.023 3.28125 119.992 3.09375C119.93 2.73438 119.898 2.47656 119.898 2.32031C119.898 2.14844 119.906 2 119.922 1.875C122.844 0.71875 125.828 0.140625 128.875 0.140625C129.016 0.140625 129.164 0.140625 129.32 0.140625C129.664 0.578125 129.875 1.46094 129.953 2.78906C130.031 4.11719 130.07 6.8125 130.07 10.875C130.07 14.9375 130.062 18.6719 130.047 22.0781C131.781 18.8438 133.312 16.5156 134.641 15.0938C136.266 13.3594 137.633 12.2734 138.742 11.8359C139.867 11.3984 140.875 11.1797 141.766 11.1797C143.328 11.1797 144.594 11.6172 145.562 12.4922C146.547 13.3516 147.039 14.5156 147.039 15.9844C147.039 17.4375 146.555 18.6016 145.586 19.4766C144.633 20.3359 143.492 20.7656 142.164 20.7656C141.883 20.7656 141.602 20.7422 141.32 20.6953C141.32 18.9141 140.977 17.6562 140.289 16.9219C139.977 16.5781 139.508 16.4062 138.883 16.4062C138.273 16.4062 137.664 16.6562 137.055 17.1562C136.445 17.6406 135.742 18.4141 134.945 19.4766C137.102 23.3359 139.164 26.4375 141.133 28.7812C143.102 31.125 144.625 32.2969 145.703 32.2969ZM192.602 7.82812C193.758 15.5312 194.617 20.6406 195.18 23.1562C195.742 25.6562 196.297 28.0391 196.844 30.3047C197.391 32.5703 197.828 34.4531 198.156 35.9531C197.047 36.3125 195.711 36.4922 194.148 36.4922C192.602 36.4922 191.508 36.3125 190.867 35.9531C189.648 33.6406 188.195 26.375 186.508 14.1562C186.227 12.125 186.062 10.9609 186.016 10.6641C183.125 17.5078 181.172 23.625 180.156 29.0156C179.781 30.9844 179.594 32.3672 179.594 33.1641C179.594 33.9609 179.594 34.4297 179.594 34.5703C178.625 35.2578 177.352 35.6016 175.773 35.6016C174.039 35.6016 172.977 35.2578 172.586 34.5703C172.352 33.8984 171.789 32.1719 170.898 29.3906C168.508 21.8906 166.383 15.5625 164.523 10.4062L164.43 11.7656C164.195 16.7812 163.891 20.3203 163.516 22.3828C163.141 24.4453 162.797 26.1406 162.484 27.4688C162.172 28.7812 161.797 29.9531 161.359 30.9844C160.938 32 160.453 32.9375 159.906 33.7969C158.656 35.7969 157.102 36.7969 155.242 36.7969C153.695 36.7969 152.461 36.2344 151.539 35.1094C151.102 34.5781 150.883 34.0078 150.883 33.3984C152.211 32.5078 153.43 31.2891 154.539 29.7422C155.648 28.1953 156.555 26.5703 157.258 24.8672C157.961 23.1641 158.57 21.3438 159.086 19.4062C160.164 15.375 160.703 11.8828 160.703 8.92969C160.703 7.96094 160.633 7.33594 160.492 7.05469C160.352 6.75781 160.25 6.53906 160.188 6.39844C160.125 6.24219 160 6.10156 159.812 5.97656C159.625 5.85156 159.5 5.77344 159.438 5.74219C159.391 5.71094 159.25 5.65625 159.016 5.57812C158.781 5.48438 158.648 5.42969 158.617 5.41406C158.367 5.10156 158.242 4.58594 158.242 3.86719C158.242 3.13281 158.273 2.64063 158.336 2.39062C159.117 2.23437 160.164 2.15625 161.477 2.15625C162.805 2.15625 164.539 2.23437 166.68 2.39062C167.43 2.54688 169.828 7.82031 173.875 18.2109C175.406 22.1484 176.367 24.4922 176.758 25.2422C177.602 22.3672 180.305 14.7656 184.867 2.4375C186.43 2.32812 187.453 2.27344 187.938 2.27344C188.438 2.27344 188.984 2.375 189.578 2.57812C190.188 2.76562 190.789 3.33594 191.383 4.28906C191.977 5.24219 192.383 6.42188 192.602 7.82812ZM209.359 25.875C209.828 28.1875 210.828 30.0547 212.359 31.4766C213.891 32.8984 215.68 33.6094 217.727 33.6094C219.773 33.6094 221.836 32.7266 223.914 30.9609C224.695 31.4766 225.172 32.0859 225.344 32.7891C223.906 34.4609 221.781 35.6562 218.969 36.375C217.828 36.6719 216.508 36.8203 215.008 36.8203C213.523 36.8203 211.984 36.5469 210.391 36C208.797 35.4688 207.367 34.6875 206.102 33.6562C204.852 32.625 203.859 31.2734 203.125 29.6016C202.391 27.9141 202.023 26.0469 202.023 24C202.023 21.9531 202.398 20.1016 203.148 18.4453C203.898 16.7734 204.891 15.4062 206.125 14.3438C208.703 12.1094 211.656 10.9922 214.984 10.9922C217.906 10.9922 220.438 11.7812 222.578 13.3594C223.609 14.1406 224.43 15.1562 225.039 16.4062C225.664 17.6406 225.977 19.0391 225.977 20.6016C225.977 23.2734 225.094 24.6797 223.328 24.8203L209.359 25.875ZM219.672 19.8984C219.672 18.0391 219.156 16.5859 218.125 15.5391C217.094 14.4922 215.742 13.9688 214.07 13.9688C212.398 13.9688 211.133 14.7578 210.273 16.3359C209.414 17.8984 208.984 20.0703 208.984 22.8516C212.875 22.4297 216.391 21.9844 219.531 21.5156C219.625 20.9531 219.672 20.4141 219.672 19.8984ZM249.32 30.9141L249.555 21.9844C249.555 19.9531 249.484 18.6719 249.344 18.1406C249.219 17.6094 249.055 17.2109 248.852 16.9453C248.414 16.3984 247.773 16.125 246.93 16.125C246.086 16.125 245.367 16.2188 244.773 16.4062C243.555 16.8125 241.992 17.9531 240.086 19.8281C240.086 21.8594 240.039 27.2656 239.945 36.0469C238.211 36.3438 236.766 36.4922 235.609 36.4922C234.453 36.4922 233.477 36.3438 232.68 36.0469C232.961 32.25 233.102 28.75 233.102 25.5469C233.102 22.3281 233.062 19.5547 232.984 17.2266C232.984 16.0391 232.562 15.3359 231.719 15.1172C231.188 14.9453 230.438 14.8203 229.469 14.7422C229.375 14.3359 229.328 14.0156 229.328 13.7812C229.328 13.5312 229.359 13.3047 229.422 13.1016C231.672 11.8359 234.469 11.2031 237.812 11.2031C238.359 11.2031 238.766 11.2109 239.031 11.2266C239.641 12.2734 239.977 14.0703 240.039 16.6172C242.961 12.8672 246.383 10.9922 250.305 10.9922C252.117 10.9922 253.531 11.6094 254.547 12.8438C255.578 14.0625 256.164 15.7188 256.305 17.8125C256.367 18.7656 256.398 19.7188 256.398 20.6719C256.398 21.625 256.352 22.6562 256.258 23.7656C255.992 27.1406 255.859 29.7266 255.859 31.5234C255.859 31.9297 256.148 32.2422 256.727 32.4609C257.305 32.6797 257.867 32.7891 258.414 32.7891C258.977 32.7891 259.359 32.7578 259.562 32.6953C259.75 33.1172 259.844 33.5078 259.844 33.8672C259.844 34.2109 259.828 34.4453 259.797 34.5703C256.875 36.0859 254.695 36.8438 253.258 36.8438C251.82 36.8438 250.805 36.3594 250.211 35.3906C249.617 34.4062 249.32 32.9141 249.32 30.9141ZM277.328 31.2891C277.891 31.8047 278.211 32.3359 278.289 32.8828C276.227 35.5078 273.844 36.8203 271.141 36.8203C269.375 36.8203 268.125 36.1172 267.391 34.7109C266.766 33.4766 266.383 31.3594 266.242 28.3594C266.117 23.6719 266.055 19.3047 266.055 15.2578C264.461 15.1953 263.484 15.1172 263.125 15.0234C263.047 14.8984 263.008 14.4375 263.008 13.6406C263.008 12.8438 263.047 12.4062 263.125 12.3281L266.102 12.0469C266.102 11.7188 266.148 10.1484 266.242 7.33594C267.023 6.53906 268.164 5.92969 269.664 5.50781C271.18 5.07031 272.523 4.85156 273.695 4.85156C273.477 6.83594 273.297 9.23438 273.156 12.0469C273.672 12.0625 275.227 12.1562 277.82 12.3281C277.898 12.5938 277.938 13.1016 277.938 13.8516C277.938 14.6016 277.898 15.0547 277.82 15.2109C276.383 15.3984 274.781 15.5156 273.016 15.5625C272.953 17.4219 272.922 19.7734 272.922 22.6172C272.922 25.4453 272.984 28.1172 273.109 30.6328C273.156 31.6016 273.641 32.0859 274.562 32.0859C275.5 32.0859 276.422 31.8203 277.328 31.2891ZM309.344 23.25C309.344 25.2969 308.977 27.2188 308.242 29.0156C307.508 30.8125 306.469 32.2812 305.125 33.4219C302.422 35.7188 298.852 36.8672 294.414 36.8672C292.195 36.8672 290.148 36.3438 288.273 35.2969C286.398 34.25 284.906 32.7891 283.797 30.9141C282.688 29.0234 282.133 26.7734 282.133 24.1641C282.133 21.5391 282.805 19.1797 284.148 17.0859C286.789 12.9609 291.219 10.8984 297.438 10.8984C300.562 10.8984 303.305 11.9688 305.664 14.1094C308.117 16.3438 309.344 19.3906 309.344 23.25ZM289.047 23.9297C289.047 26.6016 289.82 28.9375 291.367 30.9375C292.914 32.9375 294.727 33.9375 296.805 33.9375C300.648 33.9375 302.57 30.8047 302.57 24.5391C302.57 21.4297 301.859 18.9062 300.438 16.9688C299.016 15.0312 297.203 14.0625 295 14.0625C293.891 14.0625 292.93 14.3438 292.117 14.9062C291.305 15.4688 290.688 16.2266 290.266 17.1797C289.453 19.0078 289.047 21.2578 289.047 23.9297ZM330.836 20.2734C330.836 17.6016 330.227 16.2656 329.008 16.2656C328.117 16.2656 327.266 16.5234 326.453 17.0391C325.641 17.5391 324.766 18.2422 323.828 19.1484C323.828 20.7109 323.781 26.3438 323.688 36.0469C321.953 36.3438 320.531 36.4922 319.422 36.4922C318.328 36.4922 317.383 36.3438 316.586 36.0469C316.773 33.4531 316.867 29.0078 316.867 22.7109V17.2266C316.867 16.0391 316.453 15.3359 315.625 15.1172C315.062 14.9453 314.305 14.8203 313.352 14.7422C313.242 14.2734 313.188 13.9219 313.188 13.6875C313.188 13.4375 313.195 13.2422 313.211 13.1016C315.461 11.8359 318.242 11.2031 321.555 11.2031C322.102 11.2031 322.508 11.2109 322.773 11.2266C323.227 12.0078 323.492 12.8203 323.57 13.6641C323.664 14.5078 323.734 15.3125 323.781 16.0781C325.875 13.5312 327.641 11.9844 329.078 11.4375C329.766 11.1719 330.492 11.0391 331.258 11.0391C332.82 11.0391 334.07 11.4766 335.008 12.3516C335.961 13.2109 336.438 14.4766 336.438 16.1484C336.438 17.4297 335.969 18.5 335.031 19.3594C334.109 20.2031 332.992 20.625 331.68 20.625C331.398 20.625 331.117 20.6016 330.836 20.5547V20.2734Z" fill="#654D3B"/>
</svg>
